# xmcd
# 
# Track frame offsets:
#     150
#     13190
#     24361
#     37476
#     50871
#     60403
#     72898
#     83898
#     94869
#     107284
#     118669
#     129493
#     141062
#     158860
#     177276
#     199763
#     216477
#     228674
#     247607
#     266159
# 
# Disc length: 4042
# 
# Revision: 3
# Processed by: cddbd v1.5.2PL0 Copyright (c) Steve Scherf et al.
# Submitted via: fre:ac v1.1beta1pre4
# 
DISCID=200fc814
DTITLE=Booker T and The MGs - The Very Best of Booker T and The MGs
DYEAR=0
DGENRE=R&B
TTITLE0=Green Onions
TTITLE1=Chinese Checkers
TTITLE2=MO' Onions
TTITLE3=Soul Dressing
TTITLE4=Boot-Leg
TTITLE5=My Sweet Potato
TTITLE6=Booker-Loo
TTITLE7=Hip Hug-Her
TTITLE8=Groovin'
TTITLE9=Slim Jenkins' Place
TTITLE10=Soul-Limbo
TTITLE11=Heads Or Tails
TTITLE12=Hang 'EM High
TTITLE13=Over Easy
TTITLE14=Time Is Tight
TTITLE15=Mrs. Robinson
TTITLE16=Soul Clap
TTITLE17=Something
TTITLE18=Sunday Sermon
TTITLE19=Melting Pot
EXTD=
EXTT0=
EXTT1=
EXTT2=
EXTT3=
EXTT4=
EXTT5=
EXTT6=
EXTT7=
EXTT8=
EXTT9=
EXTT10=
EXTT11=
EXTT12=
EXTT13=
EXTT14=
EXTT15=
EXTT16=
EXTT17=
EXTT18=
EXTT19=
PLAYORDER=
